<?xml version="1.0" encoding="utf-8"?>
<?xml-stylesheet type="text/xsl" href="rss1.xsl"?>
<rss version="2.0" xmlns:atom="http://www.w3.org/2005/Atom" xmlns:content="http://purl.org/rss/1.0/modules/content/" xmlns:dc="http://purl.org/dc/elements/1.1/" xmlns:media="http://search.yahoo.com/mrss/">
<channel>
 <title>Getty</title>
 <link>http://www.gettyimg.com/</link>
 <atom:link href="http://www.gettyimg.com/" rel="self" type="application/rss+xml" />

 
                <item>
                <title><![CDATA[【Apple Music】WEB-RiP - DJ Project &amp; Giulia - O secunda (feat. Giulia) (1080p)]]></title>
                <link><![CDATA[https://sharemania.us/threads/dj-project-giulia-o-secunda-feat-giulia-1080p.229855/]]></link>
                <description><![CDATA[<article>
<blockquote class="messageText SelectQuoteContainer ugc baseHtml">
<img src="https://i.imgur.com/lBGVmO8.jpg" class="bbCodeImage LbImage" alt="[​IMG]" data-url="https://i.imgur.com/lBGVmO8.jpg" style=""><br>
<br>
<div class="bbCodeBlock bbCodeCode">
<div class="type">Code:</div>
<pre>General
Complete name                  : G:\Новая папка\DJ Project &amp; Giulia - O secunda (feat. Giulia).mp4
Format                         : MPEG-4
Format profile                 : Base Media
Codec ID                       : isom (isom/iso2/avc1/mp41)
File size                      : 174 MiB
Duration                       : 3 min 30 s
Overall bit rate               : 6 941 kb/s
Frame rate                     : 25.000 FPS
Movie name                     : O secunda (feat. Giulia)
Performer                      : DJ Project &amp; Giulia
Genre                          : Pop
Recorded date                  : 2021-09-07 07:00:00 UTC
Writing application            : Lavf54.59.106
Copyright                      : ℗ 2017 Cat Music / Mediapro Music / Sprint Music

Video
ID                             : 1
Format                         : AVC
Format/Info                    : Advanced Video Codec
Format profile                 : High@L4
Format settings                : CABAC / 5 Ref Frames
Format settings, CABAC         : Yes
Format settings, Reference fra : 5 frames
Codec ID                       : avc1
Codec ID/Info                  : Advanced Video Coding
Duration                       : 3 min 30 s
Bit rate                       : 6 676 kb/s
Width                          : 1 920 pixels
Height                         : 768 pixels
Display aspect ratio           : 2.500
Frame rate mode                : Constant
Frame rate                     : 25.000 FPS
Color space                    : YUV
Chroma subsampling             : 4:2:0
Bit depth                      : 8 bits
Scan type                      : Progressive
Bits/(Pixel*Frame)             : 0.181
Stream size                    : 167 MiB (96%)
Color range                    : Limited
Color primaries                : BT.709
Transfer characteristics       : BT.709
Matrix coefficients            : BT.709
Codec configuration box        : avcC

Audio
ID                             : 2
Format                         : AAC LC
Format/Info                    : Advanced Audio Codec Low Complexity
Codec ID                       : mp4a-40-2
Duration                       : 3 min 30 s
Bit rate mode                  : Constant
Bit rate                       : 265 kb/s
Channel(s)                     : 2 channels
Channel layout                 : L R
Sampling rate                  : 48.0 kHz
Frame rate                     : 46.875 FPS (1024 SPF)
Compression mode               : Lossy
Stream size                    : 6.54 MiB (4%)
Default                        : Yes
Alternate group                : 1

</pre>
</div>
<div class="bbCodeBlock bbCodeVfcHH HiddenContent">
<div class="attribution type">Hidden Content:</div>
<blockquote>You must either reply or click 'Like' to see the hidden information contained here.</blockquote>
</div>
<div class="messageTextEndMarker">&nbsp;</div>
</blockquote>
</article>]]></description>
                <author><![CDATA[vitalya3]]></author>
                </item>

                
                <item>
                <title><![CDATA[【HD Live Performances】HDTV - Global Citizen Live 2023 HDTV MPEG2 1080i DD5.1-ilya2129]]></title>
                <link><![CDATA[https://sharemania.us/threads/global-citizen-live-2023-hdtv-mpeg2-1080i-dd5-1-ilya2129.229859/]]></link>
                <description><![CDATA[<article>
<blockquote class="messageText SelectQuoteContainer ugc baseHtml">
<div style="text-align: center"><img src="https://i122.fastpic.org/big/2023/1006/02/c7e955eed222c6e87876b1b394238a02.png?r=1" class="bbCodeImage LbImage" alt="[​IMG]" data-url="https://i122.fastpic.org/big/2023/1006/02/c7e955eed222c6e87876b1b394238a02.png?r=1" style=""><br>
<br>
<a href="https://postimg.cc/3WKvvVVt" target="_blank" class="externalLink" rel="nofollow"><img src="https://i.postimg.cc/3WKvvVVt/vlcsnap-2023-10-06-17h48m40s410.png" class="bbCodeImage LbImage" alt="[​IMG]" data-url="https://i.postimg.cc/3WKvvVVt/vlcsnap-2023-10-06-17h48m40s410.png"></a> <a href="https://postimg.cc/F7zkPc9c" target="_blank" class="externalLink" rel="nofollow"><img src="https://i.postimg.cc/F7zkPc9c/vlcsnap-2023-10-06-17h48m44s725.png" class="bbCodeImage LbImage" alt="[​IMG]" data-url="https://i.postimg.cc/F7zkPc9c/vlcsnap-2023-10-06-17h48m44s725.png"></a> <a href="https://postimg.cc/WhyFx33y" target="_blank" class="externalLink" rel="nofollow"><img src="https://i.postimg.cc/WhyFx33y/vlcsnap-2023-10-06-17h48m47s097.png" class="bbCodeImage LbImage" alt="[​IMG]" data-url="https://i.postimg.cc/WhyFx33y/vlcsnap-2023-10-06-17h48m47s097.png"></a> <a href="https://postimg.cc/PLsLrR1z" target="_blank" class="externalLink" rel="nofollow"><img src="https://i.postimg.cc/PLsLrR1z/vlcsnap-2023-10-06-17h48m56s247.png" class="bbCodeImage LbImage" alt="[​IMG]" data-url="https://i.postimg.cc/PLsLrR1z/vlcsnap-2023-10-06-17h48m56s247.png"></a> <a href="https://postimg.cc/Hr7cmg8k" target="_blank" class="externalLink" rel="nofollow"><img src="https://i.postimg.cc/Hr7cmg8k/vlcsnap-2023-10-06-17h49m04s586.png" class="bbCodeImage LbImage" alt="[​IMG]" data-url="https://i.postimg.cc/Hr7cmg8k/vlcsnap-2023-10-06-17h49m04s586.png"></a> <a href="https://postimg.cc/WFsh0qWd" target="_blank" class="externalLink" rel="nofollow"><img src="https://i.postimg.cc/WFsh0qWd/vlcsnap-2023-10-06-17h49m06s568.png" class="bbCodeImage LbImage" alt="[​IMG]" data-url="https://i.postimg.cc/WFsh0qWd/vlcsnap-2023-10-06-17h49m06s568.png"></a> <a href="https://postimg.cc/kVQ2Vvcr" target="_blank" class="externalLink" rel="nofollow"><img src="https://i.postimg.cc/kVQ2Vvcr/vlcsnap-2023-10-06-17h49m08s626.png" class="bbCodeImage LbImage" alt="[​IMG]" data-url="https://i.postimg.cc/kVQ2Vvcr/vlcsnap-2023-10-06-17h49m08s626.png"></a> <br>
<br>
Red Hot Chile Peppers, Ms. Lauryn Hill, Jung Kook, Anitta, Stray Kids, and More Live from Central Park<br>
​</div><br>
<div class="bbCodeBlock bbCodeCode">
<div class="type">Code:</div>
<pre>General
ID                                       : 1 (0x1)
Complete name                            : D:\Global Citizen Live 2023 HDTV MPEG2 1080i DD5.1-ilya2129.ts
Format                                   : MPEG-TS
File size                                : 3.56 GiB
Duration                                 : 42 min 31 s
Overall bit rate mode                    : Variable
Overall bit rate                         : 12.0 Mb/s
Frame rate                               : 29.970 FPS
Movie name                               : ABC WORLD NEWS TONIGHT
Law rating                               : TV-14 (DL)

Video
ID                                       : 301 (0x12D)
Menu ID                                  : 1 (0x1)
Format                                   : MPEG Video
Format version                           : Version 2
Format profile                           : Main@High
Format settings                          : CustomMatrix / BVOP
Format settings, BVOP                    : Yes
Format settings, Matrix                  : Custom
Format settings, GOP                     : Variable
Format settings, picture structure       : Frame
Codec ID                                 : 2
Duration                                 : 42 min 31 s
Bit rate mode                            : Variable
Bit rate                                 : 10.9 Mb/s
Maximum bit rate                         : 17.0 Mb/s
Width                                    : 1 920 pixels
Height                                   : 1 080 pixels
Display aspect ratio                     : 16:9
Active Format Description                : Full frame 16:9 image
Frame rate                               : 29.970 (30000/1001) FPS
Color space                              : YUV
Chroma subsampling                       : 4:2:0
Bit depth                                : 8 bits
Scan type                                : Interlaced
Scan order                               : Top Field First
Compression mode                         : Lossy
Bits/(Pixel*Frame)                       : 0.175
Time code of first frame                 : 08:40:12;02
Time code source                         : Group of pictures header
GOP, Open/Closed                         : Open
GOP, Open/Closed of first frame          : Closed
Stream size                              : 3.23 GiB (91%)

Audio #1
ID                                       : 302 (0x12E)
Menu ID                                  : 1 (0x1)
Format                                   : AC-3
Format/Info                              : Audio Coding 3
Commercial name                          : Dolby Digital
Codec ID                                 : 129
Duration                                 : 42 min 31 s
Bit rate mode                            : Constant
Bit rate                                 : 384 kb/s
Channel(s)                               : 6 channels
Channel layout                           : L R C LFE Ls Rs
Sampling rate                            : 48.0 kHz
Frame rate                               : 31.250 FPS (1536 SPF)
Compression mode                         : Lossy
Delay relative to video                  : 6 ms
Stream size                              : 117 MiB (3%)
Language                                 : English
Service kind                             : Complete Main

Audio #2
ID                                       : 303 (0x12F)
Menu ID                                  : 1 (0x1)
Format                                   : AC-3
Format/Info                              : Audio Coding 3
Commercial name                          : Dolby Digital
Codec ID                                 : 129
Duration                                 : 42 min 31 s
Bit rate mode                            : Constant
Bit rate                                 : 128 kb/s
Channel(s)                               : 2 channels
Channel layout                           : L R
Sampling rate                            : 48.0 kHz
Frame rate                               : 31.250 FPS (1536 SPF)
Compression mode                         : Lossy
Delay relative to video                  : 6 ms
Stream size                              : 38.9 MiB (1%)
Language                                 : Spanish
Service kind                             : Complete Main

Text #1
ID                                       : 301 (0x12D)-CC1
Menu ID                                  : 1 (0x1)
Format                                   : EIA-608
Muxing mode                              : A/53 / DTVCC Transport
Muxing mode, more info                   : Muxed in Video #1
Duration                                 : 42 min 31 s
Duration of the visible content          : 42 min 13 s
Start time (commands)                    : 2 s 281 ms
Start time                               : 10 s 22 ms
End time                                 : 42 min 23 s
Bit rate mode                            : Constant
Stream size                              : 0.00 Byte (0%)
Type of the first event                  : RollUp

Text #2
ID                                       : 301 (0x12D)-CC3
Menu ID                                  : 1 (0x1)
Format                                   : EIA-608
Muxing mode                              : A/53 / DTVCC Transport
Muxing mode, more info                   : Muxed in Video #1
Duration                                 : 42 min 31 s
Start time (commands)                    : 412 ms
Bit rate mode                            : Constant
Stream size                              : 0.00 Byte (0%)

Text #3
ID                                       : 301 (0x12D)-1
Menu ID                                  : 1 (0x1)
Format                                   : EIA-708
Muxing mode                              : A/53 / DTVCC Transport
Muxing mode, more info                   : Muxed in Video #1
Duration                                 : 42 min 31 s
Bit rate mode                            : Constant
Stream size                              : 0.00 Byte (0%)

Text #4
ID                                       : 301 (0x12D)-2
Menu ID                                  : 1 (0x1)
Format                                   : EIA-708
Muxing mode                              : A/53 / DTVCC Transport
Muxing mode, more info                   : Muxed in Video #1
Duration                                 : 42 min 31 s
Bit rate mode                            : Constant
Stream size                              : 0.00 Byte (0%)

Text #5
ID                                       : 301 (0x12D)-3
Menu ID                                  : 1 (0x1)
Format                                   : EIA-708
Muxing mode                              : A/53 / DTVCC Transport
Muxing mode, more info                   : Muxed in Video #1
Duration                                 : 42 min 31 s
Bit rate mode                            : Constant
Stream size                              : 0.00 Byte (0%)


</pre>
</div><div style="text-align: center">
<div class="bbCodeBlock bbCodeVfcHH HiddenContent">
<div class="attribution type">Hidden Content:</div>
<blockquote>You must reply before you can see the hidden data contained here.</blockquote>
</div></div>
<div class="messageTextEndMarker">&nbsp;</div>
</blockquote>
</article>]]></description>
                <author><![CDATA[ilya2129]]></author>
                </item>

                
                <item>
                <title><![CDATA[【HD Live Performances】HDTV - Alicia Keys at the BBC HDTV H264 1080i DD2.0-ilya2129]]></title>
                <link><![CDATA[https://sharemania.us/threads/alicia-keys-at-the-bbc-hdtv-h264-1080i-dd2-0-ilya2129.229863/]]></link>
                <description><![CDATA[<article>
<blockquote class="messageText SelectQuoteContainer ugc baseHtml">
thanks
<div class="messageTextEndMarker">&nbsp;</div>
</blockquote>
</article>]]></description>
                <author><![CDATA[ilya2129]]></author>
                </item>

                
                <item>
                <title><![CDATA[【Apple Music】WEB-RiP - Giulia - Ghici Cine (1080p)]]></title>
                <link><![CDATA[https://sharemania.us/threads/giulia-ghici-cine-1080p.229858/]]></link>
                <description><![CDATA[<article>
<blockquote class="messageText SelectQuoteContainer ugc baseHtml">
<div style="text-align: center"><img src="https://i122.fastpic.org/big/2023/1006/ae/4acb64abdbcad1b44b1abaf4bb3979ae.png" class="bbCodeImage LbImage" alt="[​IMG]" data-url="https://i122.fastpic.org/big/2023/1006/ae/4acb64abdbcad1b44b1abaf4bb3979ae.png" style=""><br>
<br>
<a href="https://postimg.cc/WtG6g057" target="_blank" class="externalLink" rel="nofollow"><img src="https://i.postimg.cc/WtG6g057/vlcsnap-2023-10-06-18h12m10s266.png" class="bbCodeImage LbImage" alt="[​IMG]" data-url="https://i.postimg.cc/WtG6g057/vlcsnap-2023-10-06-18h12m10s266.png"></a> <a href="https://postimg.cc/cvbQ0hJd" target="_blank" class="externalLink" rel="nofollow"><img src="https://i.postimg.cc/cvbQ0hJd/vlcsnap-2023-10-06-18h12m12s373.png" class="bbCodeImage LbImage" alt="[​IMG]" data-url="https://i.postimg.cc/cvbQ0hJd/vlcsnap-2023-10-06-18h12m12s373.png"></a> <a href="https://postimg.cc/mzQM3Gyr" target="_blank" class="externalLink" rel="nofollow"><img src="https://i.postimg.cc/mzQM3Gyr/vlcsnap-2023-10-06-18h12m14s985.png" class="bbCodeImage LbImage" alt="[​IMG]" data-url="https://i.postimg.cc/mzQM3Gyr/vlcsnap-2023-10-06-18h12m14s985.png"></a> <a href="https://postimg.cc/ft4m0bXF" target="_blank" class="externalLink" rel="nofollow"><img src="https://i.postimg.cc/ft4m0bXF/vlcsnap-2023-10-06-18h12m17s623.png" class="bbCodeImage LbImage" alt="[​IMG]" data-url="https://i.postimg.cc/ft4m0bXF/vlcsnap-2023-10-06-18h12m17s623.png"></a> <a href="https://postimg.cc/VJ6jxpm7" target="_blank" class="externalLink" rel="nofollow"><img src="https://i.postimg.cc/VJ6jxpm7/vlcsnap-2023-10-06-18h12m20s000.png" class="bbCodeImage LbImage" alt="[​IMG]" data-url="https://i.postimg.cc/VJ6jxpm7/vlcsnap-2023-10-06-18h12m20s000.png"></a> <a href="https://postimg.cc/gnGyDr5b" target="_blank" class="externalLink" rel="nofollow"><img src="https://i.postimg.cc/gnGyDr5b/vlcsnap-2023-10-06-18h12m23s081.png" class="bbCodeImage LbImage" alt="[​IMG]" data-url="https://i.postimg.cc/gnGyDr5b/vlcsnap-2023-10-06-18h12m23s081.png"></a> <br>
<br>
Fallin<br>
No One<br>
You Don't Know My Name<br>
My Boo<br>
Freedom! 90<br>
Try Sleeping with a Broken Heart<br>
Underdog<br>
Never Can Say Goodbye<br>
Girlfriend<br>
How Come You Don't Know Me<br>
A Woman's Worth<br>
everything i wanted<br>
Million Dollar Bill<br>
If I Ain't Got You<br>
Empire State Of Mind<br>
Girl On Fire<br>
​</div><br>
<div class="bbCodeBlock bbCodeCode">
<div class="type">Code:</div>
<pre>General
ID                                       : 1 (0x1)
Complete name                            : D:\Alicia Keys at the BBC HDTV H264 1080i DD2.0-ilya2129.ts
Format                                   : MPEG-TS
File size                                : 2.66 GiB
Duration                                 : 58 min 14 s
Overall bit rate mode                    : Variable
Overall bit rate                         : 6 535 kb/s
Frame rate                               : 25.000 FPS

Video
ID                                       : 302 (0x12E)
Menu ID                                  : 1 (0x1)
Format                                   : AVC
Format/Info                              : Advanced Video Codec
Format profile                           : High@L4
Format settings                          : CABAC / 4 Ref Frames
Format settings, CABAC                   : Yes
Format settings, Reference frames        : 4 frames
Codec ID                                 : 27
Duration                                 : 58 min 14 s
Bit rate                                 : 5 759 kb/s
Width                                    : 1 920 pixels
Height                                   : 1 080 pixels
Display aspect ratio                     : 16:9
Active Format Description                : Letterbox 16:9 image, with alternative 14:9 center
Frame rate                               : 25.000 FPS
Standard                                 : Component
Color space                              : YUV
Chroma subsampling                       : 4:2:0
Bit depth                                : 8 bits
Scan type                                : MBAFF
Scan type, store method                  : Interleaved fields
Scan order                               : Top Field First
Bits/(Pixel*Frame)                       : 0.111
Stream size                              : 2.34 GiB (88%)
Color range                              : Limited
Color primaries                          : BT.709
Transfer characteristics                 : BT.709
Matrix coefficients                      : BT.709

Audio #1
ID                                       : 303 (0x12F)
Menu ID                                  : 1 (0x1)
Format                                   : MPEG Audio
Format version                           : Version 1
Format profile                           : Layer 2
Codec ID                                 : 3
Duration                                 : 58 min 14 s
Bit rate mode                            : Constant
Bit rate                                 : 256 kb/s
Channel(s)                               : 2 channels
Sampling rate                            : 48.0 kHz
Frame rate                               : 41.667 FPS (1152 SPF)
Compression mode                         : Lossy
Delay relative to video                  : -40 ms
Stream size                              : 107 MiB (4%)
Language                                 : nar

Audio #2
ID                                       : 304 (0x130)
Menu ID                                  : 1 (0x1)
Format                                   : AC-3
Format/Info                              : Audio Coding 3
Commercial name                          : Dolby Digital
Codec ID                                 : 6
Duration                                 : 58 min 14 s
Bit rate mode                            : Constant
Bit rate                                 : 192 kb/s
Channel(s)                               : 2 channels
Channel layout                           : L R
Sampling rate                            : 48.0 kHz
Frame rate                               : 31.250 FPS (1536 SPF)
Compression mode                         : Lossy
Delay relative to video                  : -40 ms
Stream size                              : 80.0 MiB (3%)
Language                                 : English
Service kind                             : Complete Main

Text #1
ID                                       : 309 (0x135)
Menu ID                                  : 1 (0x1)
Format                                   : DVB Subtitle
Codec ID                                 : 6
Duration                                 : 58 min 14 s
Delay relative to video                  : -187 ms
Language                                 : English

Text #2
ID                                       : 310 (0x136)-888
Menu ID                                  : 1 (0x1)
Format                                   : Teletext Subtitle
Language                                 : English
</pre>
</div><div style="text-align: center">
<div class="bbCodeBlock bbCodeVfcHH HiddenContent">
<div class="attribution type">Hidden Content:</div>
<blockquote>You must reply before you can see the hidden data contained here.</blockquote>
</div></div>
<div class="messageTextEndMarker">&nbsp;</div>
</blockquote>
</article>]]></description>
                <author><![CDATA[vitalya3]]></author>
                </item>

                
                <item>
                <title><![CDATA[【Albums (lossy)】Dolby Atmos - NCT 127 - Fact Check - The 5th Album [E-AC3-JOC | 16bits/48kHz | 5.1 | 768kbits]]]></title>
                <link><![CDATA[https://sharemania.us/threads/nct-127-fact-check-the-5th-album-e-ac3-joc-16bits-48khz-5-1-768kbits.229860/]]></link>
                <description><![CDATA[<article>
<blockquote class="messageText SelectQuoteContainer ugc baseHtml">
<img src="https://i.imgur.com/0zZwaES.jpg" class="bbCodeImage LbImage" alt="[​IMG]" data-url="https://i.imgur.com/0zZwaES.jpg" style=""><br>
<br>
<div class="bbCodeBlock bbCodeCode">
<div class="type">Code:</div>
<pre>General
Complete name                  : G:\Новая папка\Giulia - Ghici Cine.mp4
Format                         : MPEG-4
Format profile                 : Base Media
Codec ID                       : isom (isom/iso2/avc1/mp41)
File size                      : 179 MiB
Duration                       : 3 min 39 s
Overall bit rate               : 6 831 kb/s
Frame rate                     : 25.000 FPS
Movie name                     : Ghici cine?
Performer                      : Giulia
Genre                          : Pop
Recorded date                  : 2021-09-02 07:00:00 UTC
Writing application            : Lavf54.59.106
Copyright                      : ℗ 2015 Cat Music / HaHaHa Production

Video
ID                             : 1
Format                         : AVC
Format/Info                    : Advanced Video Codec
Format profile                 : High@L4
Format settings                : CABAC / 5 Ref Frames
Format settings, CABAC         : Yes
Format settings, Reference fra : 5 frames
Codec ID                       : avc1
Codec ID/Info                  : Advanced Video Coding
Duration                       : 3 min 39 s
Bit rate                       : 6 565 kb/s
Width                          : 1 920 pixels
Height                         : 768 pixels
Display aspect ratio           : 2.500
Frame rate mode                : Constant
Frame rate                     : 25.000 FPS
Color space                    : YUV
Chroma subsampling             : 4:2:0
Bit depth                      : 8 bits
Scan type                      : Progressive
Bits/(Pixel*Frame)             : 0.178
Stream size                    : 172 MiB (96%)
Color range                    : Limited
Color primaries                : BT.709
Transfer characteristics       : BT.709
Matrix coefficients            : BT.709
Codec configuration box        : avcC

Audio
ID                             : 2
Format                         : AAC LC
Format/Info                    : Advanced Audio Codec Low Complexity
Codec ID                       : mp4a-40-2
Duration                       : 3 min 39 s
Bit rate mode                  : Constant
Bit rate                       : 265 kb/s
Channel(s)                     : 2 channels
Channel layout                 : L R
Sampling rate                  : 48.0 kHz
Frame rate                     : 46.875 FPS (1024 SPF)
Compression mode               : Lossy
Stream size                    : 6.82 MiB (4%)
Default                        : Yes
Alternate group                : 1

</pre>
</div>
<div class="bbCodeBlock bbCodeVfcHH HiddenContent">
<div class="attribution type">Hidden Content:</div>
<blockquote>You must either reply or click 'Like' to see the hidden information contained here.</blockquote>
</div>
<div class="messageTextEndMarker">&nbsp;</div>
</blockquote>
</article>]]></description>
                <author><![CDATA[SonMaxime]]></author>
                </item>

                
                <item>
                <title><![CDATA[【Apple Music】WEB-RiP - Jax Jones - Breathe (feat. Ina Wroldsen) (1080p)]]></title>
                <link><![CDATA[https://sharemania.us/threads/jax-jones-breathe-feat-ina-wroldsen-1080p.229862/]]></link>
                <description><![CDATA[<article>
<blockquote class="messageText SelectQuoteContainer ugc baseHtml">
<img src="https://resources.tidal.com/images/0af9d19b/8f23/41fb/9763/f81953271506/1280x1280.jpg" class="bbCodeImage LbImage" alt="[​IMG]" data-url="https://resources.tidal.com/images/0af9d19b/8f23/41fb/9763/f81953271506/1280x1280.jpg" style=""> <br>
<br>
<b>Album: Fact Check - The 5th Album<br>
Artist: NCT 127<br>
Genre: K-Pop<br>
Release Date: 06/10/2023<br>
Format: .m4a E-AC3-JOC (Dolby Digital Plus with Dolby Atmos)<br>
<br>
<div class="bbCodeBlock bbCodeVfcHH HiddenContent">
<div class="attribution type">Hidden Content:</div>
<blockquote>You must reply before you can see the hidden data contained here.</blockquote>
</div></b>
<div class="messageTextEndMarker">&nbsp;</div>
</blockquote>
</article>]]></description>
                <author><![CDATA[vitalya3]]></author>
                </item>

                
                <item>
                <title><![CDATA[【Singles (lossless)】FLAC - IVE - «Off The Record» [FLAC 24Bit/96kHz]]]></title>
                <link><![CDATA[https://sharemania.us/threads/ive-%C2%ABoff-the-record%C2%BB-flac-24bit-96khz.229857/]]></link>
                <description><![CDATA[<article>
<blockquote class="messageText SelectQuoteContainer ugc baseHtml">
<img src="https://i.imgur.com/Bbw8uhl.jpg" class="bbCodeImage LbImage" alt="[​IMG]" data-url="https://i.imgur.com/Bbw8uhl.jpg" style=""><br>
<br>
<div class="bbCodeBlock bbCodeCode">
<div class="type">Code:</div>
<pre>General
Complete name                  : G:\Новая папка\Jax Jones - Breathe (feat. Ina Wroldsen).mp4
Format                         : MPEG-4
Format profile                 : Base Media
Codec ID                       : isom (isom/iso2/avc1/mp41)
File size                      : 274 MiB
Duration                       : 3 min 41 s
Overall bit rate               : 10.4 Mb/s
Frame rate                     : 25.000 FPS
Movie name                     : Breathe (feat. Ina Wroldsen)
Performer                      : Jax Jones
Genre                          : Dance
Recorded date                  : 2018-01-23 08:00:00 UTC
Writing application            : Lavf54.59.106
Copyright                      : A Polydor Records Recording; ℗ 2018 Universal Music Operations Limited

Video
ID                             : 1
Format                         : AVC
Format/Info                    : Advanced Video Codec
Format profile                 : High@L4
Format settings                : CABAC / 5 Ref Frames
Format settings, CABAC         : Yes
Format settings, Reference fra : 5 frames
Codec ID                       : avc1
Codec ID/Info                  : Advanced Video Coding
Duration                       : 3 min 41 s
Bit rate                       : 10.1 Mb/s
Width                          : 1 912 pixels
Height                         : 812 pixels
Display aspect ratio           : 2.35:1
Frame rate mode                : Constant
Frame rate                     : 25.000 FPS
Color space                    : YUV
Chroma subsampling             : 4:2:0
Bit depth                      : 8 bits
Scan type                      : Progressive
Bits/(Pixel*Frame)             : 0.261
Stream size                    : 267 MiB (98%)
Color range                    : Limited
Color primaries                : BT.709
Transfer characteristics       : BT.709
Matrix coefficients            : BT.709
Codec configuration box        : avcC

Audio
ID                             : 2
Format                         : AAC LC
Format/Info                    : Advanced Audio Codec Low Complexity
Codec ID                       : mp4a-40-2
Duration                       : 3 min 41 s
Bit rate mode                  : Constant
Bit rate                       : 250 kb/s
Channel(s)                     : 2 channels
Channel layout                 : L R
Sampling rate                  : 48.0 kHz
Frame rate                     : 46.875 FPS (1024 SPF)
Compression mode               : Lossy
Stream size                    : 6.59 MiB (2%)
Default                        : Yes
Alternate group                : 1

</pre>
</div>
<div class="bbCodeBlock bbCodeVfcHH HiddenContent">
<div class="attribution type">Hidden Content:</div>
<blockquote>You must either reply or click 'Like' to see the hidden information contained here.</blockquote>
</div>
<div class="messageTextEndMarker">&nbsp;</div>
</blockquote>
</article>]]></description>
                <author><![CDATA[WithLoveSNSD]]></author>
                </item>

                
                <item>
                <title><![CDATA[【Singles (lossless)】FLAC - Take That - Windows (Acoustic) [Qobuz, 24B-44.1kHz]]]></title>
                <link><![CDATA[https://sharemania.us/threads/take-that-windows-acoustic-qobuz-24b-44-1khz.229864/]]></link>
                <description><![CDATA[<article>
<blockquote class="messageText SelectQuoteContainer ugc baseHtml">
<div style="text-align: center"><img src="https://i.imgur.com/fj4hnVt.jpg" class="bbCodeImage LbImage" alt="[​IMG]" data-url="https://i.imgur.com/fj4hnVt.jpg" style=""><br>
<br>
<span data-s9e-mediaembed="youtube" style="display:inline-block;width:100%;max-width:640px"><span style="display:block;overflow:hidden;position:relative;padding-bottom:56.25%"><iframe allowfullscreen="" loading="lazy" scrolling="no" style="background:url(https://i.ytimg.com/vi/_ApV7Lm87cg/hqdefault.jpg) 50% 50% / cover;border:0;height:100%;left:0;position:absolute;width:100%" src="https://www.youtube.com/embed/_ApV7Lm87cg"></iframe></span></span><br>
<br>
<span data-s9e-mediaembed="spotify" style="display:inline-block;width:100%;max-width:320px"><span style="display:block;overflow:hidden;position:relative;padding-bottom:125%;padding-bottom:calc(100% + 80px)"><iframe allow="encrypted-media" allowfullscreen="" loading="lazy" scrolling="no" src="https://open.spotify.com/embed/album/7qch1xWGWuU5VxZEYBF5KW" style="border:0;height:100%;left:0;position:absolute;width:100%"></iframe></span></span><br>
<br>
<div class="bbCodeBlock bbCodeVfcHH HiddenContent">
<div class="attribution type">Hidden Content:</div>
<blockquote>You must reply before you can see the hidden data contained here.</blockquote>
</div></div>
<div class="messageTextEndMarker">&nbsp;</div>
</blockquote>
</article>]]></description>
                <author><![CDATA[mavs88]]></author>
                </item>

                
                <item>
                <title><![CDATA[【Apple Music】WEB-RiP - Giulia - Jocuri deocheate (1080p)]]></title>
                <link><![CDATA[https://sharemania.us/threads/giulia-jocuri-deocheate-1080p.229861/]]></link>
                <description><![CDATA[<article>
<blockquote class="messageText SelectQuoteContainer ugc baseHtml">
Thanks
<div class="messageTextEndMarker">&nbsp;</div>
</blockquote>
</article>]]></description>
                <author><![CDATA[vitalya3]]></author>
                </item>

                
                <item>
                <title><![CDATA[【HD Live Performances】HDTV - Kelly Clarkson - Live @ Today (+ Interview) HDTV MPEG2 1080i DD5.1-ilya2129]]></title>
                <link><![CDATA[https://sharemania.us/threads/kelly-clarkson-live-today-interview-hdtv-mpeg2-1080i-dd5-1-ilya2129.229856/]]></link>
                <description><![CDATA[<article>
<blockquote class="messageText SelectQuoteContainer ugc baseHtml">
<div style="text-align: center"><img src="https://i.imgur.com/yA3QMzp.jpg" class="bbCodeImage LbImage" alt="[​IMG]" data-url="https://i.imgur.com/yA3QMzp.jpg" style=""><br>
<br>
<b><b>Artist / Group:</b> </b>Take That<br>
<b><b>Single / Album:</b> </b>Windows (Acoustic)<br>
<b><b>Date of Release:</b> </b>2023-10-06<br>
<b><b>Genre: </b></b>Pop<br>
<b><b>Size: </b></b>42,6 MB<br>
<b><b>Format: </b></b>FLAC (24B/44.1kHz)​</div><br>
<div style="text-align: center">
<div class="bbCodeBlock bbCodeCode">
<div class="type">Code:</div>
<pre>01. Windows (Acoustic) [00:03:38]</pre>
</div>
<div class="bbCodeBlock bbCodeVfcHH HiddenContent">
<div class="attribution type">Hidden Content:</div>
<blockquote>You must reply before you can see the hidden data contained here.</blockquote>
</div></div>
<div class="messageTextEndMarker">&nbsp;</div>
</blockquote>
</article>]]></description>
                <author><![CDATA[ilya2129]]></author>
                </item>

                </channel></rss>